<svg width="378" height="378" xmlns="http://www.w3.org/2000/svg" xmlns:xlink="http://www.w3.org/1999/xlink" overflow="hidden"><defs><clipPath id="clip0"><rect x="512" y="1239" width="378" height="378"/></clipPath></defs><g clip-path="url(#clip0)" transform="translate(-512 -1239)"><path d="M171.355 377.262C134.662 373.718 98.2652 358.731 69.7676 335.549 61.3512 328.757 48.0621 315.32 41.4176 306.977 24.5109 285.789 10.6312 257.143 4.87266 231.451 1.25508 215.357 0.442969 207.457 0.442969 189 0.442969 170.543 1.25508 162.643 4.87266 146.549 10.7051 120.34 24.9539 91.2516 42.4512 69.7676 49.2434 61.3512 62.6801 48.0621 71.0227 41.4176 92.2113 24.5109 120.857 10.6312 146.549 4.87266 162.643 1.25508 170.543 0.442969 189 0.442969 207.457 0.442969 215.357 1.25508 231.451 4.87266 250.72 9.15469 275.97 19.9336 292.581 30.934 321.3 50.0555 343.375 75.157 358.509 105.943 367.738 124.77 372.98 141.676 376.302 163.16 378.074 175.046 378.074 202.954 376.302 214.84 372.98 236.324 367.738 253.23 358.509 272.057 348.616 292.138 337.616 307.494 321.743 323.146 306.165 338.576 291.916 348.69 272.057 358.436 253.452 367.59 236.176 372.98 215.578 376.154 206.276 377.557 181.027 378.148 171.355 377.262ZM155.113 274.862C176.449 268.956 188.262 253.452 188.262 231.525 188.262 220.968 185.752 213.363 180.436 207.457 177.188 203.913 173.865 201.772 168.033 199.631 163.751 198.007 163.677 197.933 166.187 197.933 170.986 197.859 177.63 194.98 181.765 191.363 190.107 183.758 193.43 174.973 193.946 158.73 194.389 146.401 193.061 139.461 188.852 130.75 183.758 120.414 171.872 111.407 158.657 107.863 148.764 105.131 141.898 104.836 95.8289 104.836L50.9414 104.836 50.9414 190.92 50.9414 277.003 100.259 276.708C147.582 276.413 149.723 276.339 155.113 274.862ZM301.071 256.036 300.85 245.479 265.634 245.257 230.344 245.109 230.344 255.814 230.344 266.52 265.781 266.52 301.293 266.52 301.071 256.036ZM287.044 230.418C312.957 222.813 327.059 200.665 327.059 167.442L327.059 158.73 282.836 158.73C258.472 158.73 238.391 158.435 238.17 158.14 237.431 156.885 239.277 147.213 240.975 143.596 246.217 132.521 258.841 127.058 274.493 129.199 281.728 130.159 285.936 131.857 289.775 135.179 292.729 137.763 295.239 142.414 295.312 145.294L295.312 146.918 310.447 146.918 325.582 146.918 325.582 144.186C325.508 135.991 321.374 124.917 315.984 118.716 310.152 111.997 298.339 105.722 287.191 103.433 275.084 100.923 256.479 101.218 245.479 104.098 217.941 111.185 201.477 133.85 201.477 164.637 201.551 195.275 217.424 220.672 241.935 228.941 251.163 232.042 255.224 232.559 268.734 232.263 279.292 232.042 282.688 231.746 287.044 230.418Z" fill="#1769FF" transform="matrix(1 0 0 -1 512 1617)"/><path d="M90.0703 226.652 90.0703 207.457 112.809 207.457C143.817 207.457 146.106 207.974 149.871 215.283 151.495 218.457 151.717 219.786 151.717 227.021 151.717 234.035 151.495 235.586 150.019 238.612 149.059 240.606 147.213 242.895 145.958 243.78 143.596 245.479 143.3 245.479 116.87 245.7L90.0703 245.921 90.0703 226.652Z" fill="#1769FF" transform="matrix(1 0 0 -1 512 1617)"/><path d="M90.0703 158.804 90.0703 135.844 116.279 135.844C140.643 135.844 142.71 135.918 146.401 137.32 151.052 139.092 153.636 141.529 155.925 146.549 157.254 149.576 157.623 151.569 157.623 157.623 157.623 166.63 156.073 171.724 152.16 175.637 146.549 181.248 146.77 181.248 116.87 181.47L90.0703 181.691 90.0703 158.804Z" fill="#1769FF" transform="matrix(1 0 0 -1 512 1617)"/><path d="M257.734 206.35C252.566 204.725 246.881 200.37 243.707 195.571 241.049 191.658 237.727 184.201 237.727 182.355 237.727 181.912 248.358 181.617 265.855 181.617L294.057 181.617 293.614 184.866C292.359 193.577 287.191 201.477 280.252 205.021 277.003 206.719 275.453 207.014 268.734 207.236 263.493 207.383 259.949 207.088 257.734 206.35Z" fill="#1769FF" transform="matrix(1 0 0 -1 512 1617)"/></g></svg>