<svg width="378" height="378" xmlns="http://www.w3.org/2000/svg" xmlns:xlink="http://www.w3.org/1999/xlink" overflow="hidden"><defs><clipPath id="clip0"><rect x="1296" y="815" width="378" height="378"/></clipPath></defs><g clip-path="url(#clip0)" transform="translate(-1296 -815)"><path d="M171.355 377.262C134.662 373.718 98.2652 358.731 69.7676 335.549 61.3512 328.757 48.0621 315.32 41.4176 306.977 24.5109 285.789 10.6312 257.143 4.87266 231.451 1.25508 215.357 0.442969 207.457 0.442969 189 0.442969 170.543 1.25508 162.643 4.87266 146.549 10.7051 120.34 24.9539 91.2516 42.4512 69.7676 49.2434 61.3512 62.6801 48.0621 71.0227 41.4176 92.2113 24.5109 120.857 10.6312 146.549 4.87266 162.643 1.25508 170.543 0.442969 189 0.442969 207.457 0.442969 215.357 1.25508 231.451 4.87266 250.72 9.15469 275.97 19.9336 292.581 30.934 321.3 50.0555 343.375 75.157 358.509 105.943 367.738 124.77 372.98 141.676 376.302 163.16 378.074 175.046 378.074 202.954 376.302 214.84 372.98 236.324 367.738 253.23 358.509 272.057 348.616 292.138 337.616 307.494 321.743 323.146 306.165 338.576 291.916 348.69 272.057 358.436 253.452 367.59 236.176 372.98 215.578 376.154 206.276 377.557 181.027 378.148 171.355 377.262ZM206.497 327.428C247.103 322.186 282.688 300.111 305.132 266.298 320.931 242.525 328.535 217.424 328.535 189 328.535 160.576 320.931 135.475 305.132 111.702 279.366 72.8684 235.659 49.4648 189 49.4648 151.643 49.4648 116.87 64.009 90.0703 90.8086 63.4922 117.313 49.4648 151.348 49.4648 189 49.4648 226.652 63.4922 260.687 90.0703 287.191 121.152 318.273 163.603 332.965 206.497 327.428Z" fill="#FFFFFF" transform="matrix(1 0 0 -1 1296 1193)"/><path d="M179.033 306.313C174.973 306.018 169.509 305.279 166.999 304.762L162.274 303.803 165.523 299.373C173.791 288.077 189.591 263.714 198.155 248.801 201.329 243.337 204.356 238.096 204.947 237.21L205.98 235.586 213.511 238.908C227.021 244.814 239.277 252.049 249.17 259.875 253.895 263.64 266.52 276.413 266.446 277.372 266.446 278.184 259.58 283.5 252.787 287.93 241.196 295.534 227.243 301.219 213.142 304.172 207.088 305.427 189.812 307.346 187.154 306.977 186.785 306.977 183.094 306.682 179.033 306.313Z" fill="#FFFFFF" transform="matrix(1 0 0 -1 1296 1193)"/><path d="M132.891 292.655C115.762 283.131 100.037 268.513 89.9227 252.861 83.2043 242.525 75.8215 225.471 74.2711 216.759L73.6805 213.88 88.0031 214.323C107.641 214.988 132.005 217.719 150.24 221.189 161.905 223.404 179.771 227.538 180.436 228.129 181.1 228.793 171.946 244.666 160.724 262.09 152.381 275.084 138.575 295.239 138.059 295.312 137.837 295.312 135.548 294.131 132.891 292.655Z" fill="#FFFFFF" transform="matrix(1 0 0 -1 1296 1193)"/><path d="M272.057 253.6C257.143 238.612 244.297 230.048 218.753 218.162L215.652 216.686 220.598 205.685 225.545 194.759 233.666 195.275C253.747 196.604 274.271 195.718 295.903 192.544 301.736 191.732 306.682 191.215 306.904 191.436 307.716 192.322 305.427 209.524 303.434 217.424 300.111 230.565 294.796 242.747 287.487 253.6 280.621 263.788 282.245 263.862 272.057 253.6Z" fill="#FFFFFF" transform="matrix(1 0 0 -1 1296 1193)"/><path d="M182.355 205.907C155.63 198.524 117.682 193.061 86.6004 192.175L70.875 191.732 70.875 186.859C70.875 162.791 80.8418 135.179 96.4934 115.689L100.554 110.668 105.057 117.313C117.534 135.401 135.991 154.079 154.301 166.925 165.375 174.751 181.248 182.872 193.799 187.228 197.047 188.336 199.927 189.443 200.296 189.738 201.108 190.403 192.175 208.195 191.067 208.121 190.55 208.121 186.637 207.088 182.355 205.907Z" fill="#FFFFFF" transform="matrix(1 0 0 -1 1296 1193)"/><path d="M244.371 175.711C231.968 174.677 232.78 176.228 237.431 162.274 244.15 142.414 253.304 107.863 255.15 95.5336 255.371 93.7617 255.962 92.2852 256.331 92.2852 257.512 92.2852 267.479 100.554 273.459 106.682 288.594 121.964 299.373 141.676 304.172 163.16 304.91 166.556 305.501 169.436 305.427 169.509 305.353 169.583 302.326 170.395 298.635 171.281 282.836 175.12 259.949 176.966 244.371 175.711Z" fill="#FFFFFF" transform="matrix(1 0 0 -1 1296 1193)"/><path d="M201.551 165.67C185.899 159.395 169.657 150.24 156.368 140.2 148.616 134.367 133.112 118.863 127.28 111.111 122.481 104.688 117.387 96.7887 117.387 95.6074 117.387 94.4262 129.79 86.5266 137.689 82.6875 155.408 74.1234 174.013 70.2105 193.356 71.0965 207.014 71.6871 216.686 73.6066 229.458 78.0363 233.518 79.5129 234.7 80.2512 234.478 81.1371 234.257 81.8016 233.445 85.7883 232.632 90.0703 227.612 115.984 211.813 167.738 208.86 168.107 208.269 168.18 205.021 167.073 201.551 165.67Z" fill="#FFFFFF" transform="matrix(1 0 0 -1 1296 1193)"/></g></svg>