<svg width="378" height="378" xmlns="http://www.w3.org/2000/svg" xmlns:xlink="http://www.w3.org/1999/xlink" overflow="hidden"><defs><clipPath id="clip0"><rect x="-284" y="1239" width="378" height="378"/></clipPath></defs><g clip-path="url(#clip0)" transform="translate(284 -1239)"><path d="M170.912 377.188C111.85 371.06 60.0961 338.945 28.6453 288.889-15.9469 218.014-7.6043 124.327 48.7266 62.6062 79.9559 28.4238 118.937 7.97344 165.744 1.32891 174.456 0.0738281 203.47 0.147656 212.625 1.32891 255.371 7.23516 293.614 26.209 322.703 55.8879 332.3 65.6332 334.294 67.9219 340.643 76.3383 359.543 101.514 371.872 132.226 376.671 165.744 377.926 174.456 377.926 203.544 376.671 212.256 373.496 234.626 367.664 253.673 358.436 272.352 348.543 292.138 338.502 306.239 322.777 322.112 293.614 351.643 257.143 370.027 215.209 376.228 206.128 377.557 179.919 378.148 170.912 377.188ZM122.186 295.608C127.427 293.762 133.703 287.413 135.475 282.023 139.757 269.473 133.998 256.257 122.259 251.828 108.454 246.66 94.4262 250.942 88.1508 262.237 86.1574 265.855 86.0098 266.741 86.0098 273.533 86.0098 279.735 86.3051 281.433 87.634 283.943 91.1039 290.44 96.198 294.574 103.286 296.568 107.641 297.823 117.313 297.306 122.186 295.608ZM262.459 232.189C269.916 230.122 278.184 225.397 283.5 220.008 289.185 214.249 292.581 208.712 295.46 200.665 299.521 189.074 299.742 186.268 299.742 137.246L299.742 92.2852 276.855 92.2852 253.969 92.2852 253.969 132.743C253.969 164.637 253.747 174.161 252.935 178 251.016 187.007 247.398 192.175 240.827 195.423 234.995 198.302 226.726 198.376 220.746 195.571 215.43 193.061 211.001 188.483 208.048 182.503L205.611 177.557 205.39 134.958 205.168 92.2852 182.282 92.2852 159.469 92.2852 159.469 161.684 159.469 231.082 182.355 231.082 205.242 231.082 205.242 221.337 205.316 211.518 207.162 213.732C208.195 214.988 210.336 217.498 211.887 219.417 217.276 225.766 227.907 231.599 237.357 233.297 242.599 234.257 257.217 233.592 262.459 232.189ZM134.22 161.536 134.367 92.2852 111.111 92.2852 87.8555 92.2852 87.8555 161.167C87.8555 199.114 88.077 230.344 88.3723 230.565 88.6676 230.861 99.0035 231.008 111.407 230.934L133.998 230.713 134.22 161.536Z" fill="#2867B2" transform="matrix(1 0 0 -1 -284 1617)"/></g></svg>